<svg width="56" height="56" viewBox="0 0 56 56" fill="none" xmlns="http://www.w3.org/2000/svg">
<g filter="url(#filter0_bd_187_1083)">
<rect x="11" y="7" width="34" height="34" rx="17" fill="white" fill-opacity="0.4" shape-rendering="crispEdges"/>
<rect x="11" y="7" width="34" height="34" rx="17" stroke="url(#paint0_linear_187_1083)" shape-rendering="crispEdges"/>
<path d="M33.2721 27.8129L32.9795 20.3862C32.971 20.2478 32.9354 20.1103 32.8746 19.9816C32.758 19.7223 32.5472 19.5115 32.2879 19.3949C32.1592 19.3341 32.0217 19.2985 31.8833 19.29L24.4566 18.9974C24.3181 18.992 24.1821 19.0138 24.0562 19.0618C23.9303 19.1098 23.8171 19.1829 23.7231 19.2769C23.5331 19.4669 23.4326 19.7308 23.4436 20.0105C23.4546 20.2902 23.5763 20.5628 23.7818 20.7683C23.9874 20.9739 24.26 21.0956 24.5397 21.1066L29.4336 21.292L23.3054 27.4202C23.1162 27.6094 23.0161 27.8722 23.027 28.1508C23.038 28.4293 23.1592 28.7008 23.3639 28.9056C23.5687 29.1103 23.8402 29.2315 24.1187 29.2424C24.3973 29.2534 24.6601 29.1533 24.8493 28.9641L30.9775 22.8359L31.1629 27.7298C31.1678 27.8684 31.2001 28.0069 31.2579 28.1371C31.3158 28.2674 31.398 28.387 31.4999 28.4889C31.6018 28.5908 31.7214 28.673 31.8517 28.7309C31.982 28.7887 32.1204 28.821 32.259 28.8259C32.3977 28.832 32.534 28.8105 32.6602 28.7627C32.7863 28.715 32.8997 28.6419 32.9939 28.5477C33.0881 28.4536 33.1611 28.3401 33.2089 28.214C33.2566 28.0879 33.2781 27.9516 33.2721 27.8129Z" fill="#030205"/>
</g>
<defs>
<filter id="filter0_bd_187_1083" x="-9.5" y="-13.5" width="75" height="75" filterUnits="userSpaceOnUse" color-interpolation-filters="sRGB">
<feFlood flood-opacity="0" result="BackgroundImageFix"/>
<feGaussianBlur in="BackgroundImageFix" stdDeviation="10"/>
<feComposite in2="SourceAlpha" operator="in" result="effect1_backgroundBlur_187_1083"/>
<feColorMatrix in="SourceAlpha" type="matrix" values="0 0 0 0 0 0 0 0 0 0 0 0 0 0 0 0 0 0 127 0" result="hardAlpha"/>
<feOffset dy="4"/>
<feGaussianBlur stdDeviation="5"/>
<feComposite in2="hardAlpha" operator="out"/>
<feColorMatrix type="matrix" values="0 0 0 0 0 0 0 0 0 0 0 0 0 0 0 0 0 0 0.05 0"/>
<feBlend mode="normal" in2="effect1_backgroundBlur_187_1083" result="effect2_dropShadow_187_1083"/>
<feBlend mode="normal" in="SourceGraphic" in2="effect2_dropShadow_187_1083" result="shape"/>
</filter>
<linearGradient id="paint0_linear_187_1083" x1="21" y1="7" x2="45" y2="41" gradientUnits="userSpaceOnUse">
<stop stop-color="white"/>
<stop offset="1" stop-color="white" stop-opacity="0"/>
</linearGradient>
</defs>
</svg>
