<svg width="9" height="9" viewBox="0 0 9 9" fill="none" xmlns="http://www.w3.org/2000/svg">
<path d="M8.29032 7.01682L8.29032 1.12426C8.28793 1.01458 8.2639 0.906442 8.21961 0.806065C8.13509 0.603667 7.97418 0.442755 7.77178 0.35823C7.6714 0.313943 7.56327 0.289914 7.45358 0.287519L1.56102 0.287519C1.45114 0.287519 1.34234 0.309162 1.24082 0.351213C1.1393 0.393263 1.04706 0.454897 0.969357 0.532596C0.812438 0.689515 0.724281 0.902345 0.724281 1.12426C0.724281 1.34618 0.812438 1.55901 0.969358 1.71593C1.12628 1.87285 1.33911 1.96101 1.56102 1.96101L5.44422 1.95511L0.382513 7.01682C0.226233 7.1731 0.138435 7.38506 0.138435 7.60608C0.138435 7.82709 0.226233 8.03905 0.382513 8.19533C0.538794 8.35161 0.750754 8.43941 0.971768 8.43941C1.19278 8.43941 1.40474 8.35161 1.56102 8.19533L6.62273 3.13362L6.61684 7.01682C6.61639 7.12683 6.63772 7.23584 6.67961 7.33756C6.7215 7.43928 6.78312 7.5317 6.86091 7.60949C6.9387 7.68728 7.03112 7.7489 7.13284 7.79079C7.23456 7.83268 7.34357 7.85401 7.45358 7.85356C7.56359 7.85401 7.6726 7.83268 7.77432 7.79079C7.87604 7.7489 7.96846 7.68728 8.04625 7.60949C8.12404 7.5317 8.18566 7.43928 8.22755 7.33756C8.26944 7.23584 8.29077 7.12683 8.29032 7.01682Z" fill="white"/>
</svg>
