<svg width="11" height="11" viewBox="0 0 11 11" fill="none" xmlns="http://www.w3.org/2000/svg">
<path d="M10.2721 8.81288L9.97949 1.38615C9.97102 1.24779 9.93537 1.11031 9.87457 0.981599C9.75799 0.722309 9.54719 0.511512 9.2879 0.394931C9.15919 0.334129 9.02171 0.298474 8.88334 0.29001L1.45662 -0.00258226C1.31813 -0.00803854 1.18207 0.0138366 1.05621 0.0617942C0.930345 0.109752 0.817148 0.182852 0.723077 0.276923C0.533094 0.466906 0.432554 0.730769 0.443573 1.01046C0.454592 1.29016 0.576269 1.56278 0.781836 1.76834C0.987403 1.97391 1.26002 2.09559 1.53972 2.10661L6.43364 2.292L0.305416 8.42022C0.116207 8.60943 0.0160752 8.87222 0.0270493 9.15077C0.0380236 9.42933 0.159205 9.70083 0.363934 9.90556C0.568663 10.1103 0.840169 10.2315 1.11873 10.2424C1.39728 10.2534 1.66007 10.1533 1.84928 9.96408L7.9775 3.83586L8.16289 8.72978C8.16778 8.86841 8.20009 9.00686 8.25793 9.13715C8.31578 9.26743 8.39803 9.38698 8.49993 9.48888C8.60184 9.59078 8.72138 9.67303 8.85167 9.73088C8.98195 9.78873 9.1204 9.82103 9.25903 9.82592C9.39771 9.83196 9.53404 9.81048 9.66016 9.76273C9.78629 9.71499 9.89971 9.64192 9.99389 9.54774C10.0881 9.45356 10.1611 9.34013 10.2089 9.21401C10.2566 9.08788 10.2781 8.95155 10.2721 8.81288Z" fill="#030205"/>
</svg>
