<svg width="61" height="62" viewBox="0 0 61 62" fill="none" xmlns="http://www.w3.org/2000/svg">
<g filter="url(#filter0_b_182_69)">
<rect x="0.501953" y="1" width="60" height="60" rx="30" fill="white" fill-opacity="0.4"/>
<rect x="0.501953" y="1" width="60" height="60" rx="30" stroke="url(#paint0_linear_182_69)"/>
<path fill-rule="evenodd" clip-rule="evenodd" d="M36.263 45H24.7243C20.4858 45 17.2342 43.4443 18.1578 37.1828L19.2333 28.6971C19.8026 25.5728 21.7637 24.3771 23.4844 24.3771H37.5536C39.2996 24.3771 41.1468 25.6628 41.8047 28.6971L42.8801 37.1828C43.6645 42.7371 40.5015 45 36.263 45Z" stroke="white" stroke-width="1.5" stroke-linecap="round" stroke-linejoin="round"/>
<path d="M36.4538 24.0686C36.4538 20.7171 33.7801 18.0001 30.482 18.0001V18.0001C28.8938 17.9932 27.3683 18.6296 26.2429 19.7684C25.1175 20.9072 24.4848 22.4547 24.4849 24.0686V24.0686" stroke="white" stroke-width="1.5" stroke-linecap="round" stroke-linejoin="round"/>
<path d="M34.5807 30.3941H34.5175" stroke="white" stroke-width="2.14913" stroke-linecap="round" stroke-linejoin="round"/>
<path d="M26.5217 30.3941H26.4584" stroke="white" stroke-width="2.14913" stroke-linecap="round" stroke-linejoin="round"/>
</g>
<defs>
<filter id="filter0_b_182_69" x="-19.998" y="-19.5" width="101" height="101" filterUnits="userSpaceOnUse" color-interpolation-filters="sRGB">
<feFlood flood-opacity="0" result="BackgroundImageFix"/>
<feGaussianBlur in="BackgroundImageFix" stdDeviation="10"/>
<feComposite in2="SourceAlpha" operator="in" result="effect1_backgroundBlur_182_69"/>
<feBlend mode="normal" in="SourceGraphic" in2="effect1_backgroundBlur_182_69" result="shape"/>
</filter>
<linearGradient id="paint0_linear_182_69" x1="1" y1="1" x2="61" y2="61" gradientUnits="userSpaceOnUse">
<stop offset="0.138693" stop-color="white"/>
<stop offset="0.414413" stop-color="white" stop-opacity="0"/>
</linearGradient>
</defs>
</svg>
