<svg width="61" height="62" viewBox="0 0 61 62" fill="none" xmlns="http://www.w3.org/2000/svg">
<g filter="url(#filter0_b_182_19)">
<rect x="0.501953" y="1" width="60" height="60" rx="30" fill="white" fill-opacity="0.4"/>
<rect x="0.501953" y="1" width="60" height="60" rx="30" stroke="url(#paint0_linear_182_19)"/>
<path d="M30 14.5C26.7366 14.5 23.5465 15.4677 20.8331 17.2808C18.1197 19.0938 16.0048 21.6708 14.756 24.6858C13.5072 27.7007 13.1804 31.0183 13.8171 34.219C14.4537 37.4197 16.0252 40.3597 18.3327 42.6673C20.6403 44.9748 23.5803 46.5463 26.781 47.183C29.9817 47.8196 33.2993 47.4929 36.3143 46.244C39.3293 44.9951 41.9062 42.8803 43.7192 40.1669C45.5323 37.4535 46.5 34.2634 46.5 31C46.4951 26.6255 44.7551 22.4315 41.6618 19.3382C38.5685 16.2449 34.3745 14.505 30 14.5ZM43.7385 37H39.0975C39.4779 35.2746 39.6892 33.5163 39.7283 31.75H44.9618C44.8771 33.5599 44.4626 35.3391 43.7385 37ZM15.0383 31.75H20.2718C20.3108 33.5163 20.5221 35.2746 20.9025 37H16.2615C15.5375 35.3391 15.1229 33.5599 15.0383 31.75ZM16.2615 25H20.9025C20.5221 26.7254 20.3108 28.4837 20.2718 30.25H15.0383C15.1229 28.4401 15.5375 26.6609 16.2615 25ZM30.75 23.5V16.069C33.4793 16.519 35.823 19.396 37.134 23.5H30.75ZM37.5563 25C37.9628 26.7219 38.1891 28.4813 38.2313 30.25H30.75V25H37.5563ZM29.25 16.069V23.5H22.866C24.177 19.396 26.5208 16.519 29.25 16.069ZM29.25 25V30.25H21.771C21.8132 28.4813 22.0394 26.7219 22.446 25H29.25ZM21.771 31.75H29.25V37H22.4438C22.0379 35.2781 21.8124 33.5186 21.771 31.75ZM29.25 38.5V45.931C26.5208 45.481 24.177 42.604 22.866 38.5H29.25ZM30.75 45.931V38.5H37.134C35.823 42.604 33.4793 45.481 30.75 45.931ZM30.75 37V31.75H38.229C38.1869 33.5187 37.9606 35.2782 37.554 37H30.75ZM39.7283 30.25C39.6892 28.4837 39.4779 26.7254 39.0975 25H43.7385C44.4626 26.6609 44.8771 28.4401 44.9618 30.25H39.7283ZM42.9705 23.5H38.7098C38.0588 21.0561 36.8348 18.8026 35.139 16.9262C38.4362 18.1372 41.2064 20.4625 42.9705 23.5ZM24.861 16.9262C23.1653 18.8026 21.9412 21.0561 21.2903 23.5H17.0295C18.7935 20.4625 21.5638 18.1372 24.861 16.9262ZM17.0295 38.5H21.2903C21.9412 40.9439 23.1653 43.1974 24.861 45.0737C21.5638 43.8628 18.7935 41.5374 17.0295 38.5ZM35.139 45.0737C36.8348 43.1974 38.0588 40.9439 38.7098 38.5H42.9705C41.2064 41.5374 38.4362 43.8628 35.139 45.0737Z" fill="white"/>
</g>
<defs>
<filter id="filter0_b_182_19" x="-19.998" y="-19.5" width="101" height="101" filterUnits="userSpaceOnUse" color-interpolation-filters="sRGB">
<feFlood flood-opacity="0" result="BackgroundImageFix"/>
<feGaussianBlur in="BackgroundImageFix" stdDeviation="10"/>
<feComposite in2="SourceAlpha" operator="in" result="effect1_backgroundBlur_182_19"/>
<feBlend mode="normal" in="SourceGraphic" in2="effect1_backgroundBlur_182_19" result="shape"/>
</filter>
<linearGradient id="paint0_linear_182_19" x1="1" y1="1" x2="61" y2="61" gradientUnits="userSpaceOnUse">
<stop offset="0.138693" stop-color="white"/>
<stop offset="0.414413" stop-color="white" stop-opacity="0"/>
</linearGradient>
</defs>
</svg>
