<svg width="61" height="62" viewBox="0 0 61 62" fill="none" xmlns="http://www.w3.org/2000/svg">
<g filter="url(#filter0_b_182_44)">
<rect x="0.501953" y="1" width="60" height="60" rx="30" fill="white" fill-opacity="0.4"/>
<rect x="0.501953" y="1" width="60" height="60" rx="30" stroke="url(#paint0_linear_182_44)"/>
<path d="M45.94 33.16H45.04C44.8708 27.6196 41.7028 22.9864 36.9796 20.92H42.88V21.82C42.88 21.9632 42.9369 22.1006 43.0382 22.2019C43.1395 22.3031 43.2768 22.36 43.42 22.36C43.5632 22.36 43.7006 22.3031 43.8019 22.2019C43.9031 22.1006 43.96 21.9632 43.96 21.82V18.94C43.96 18.7968 43.9031 18.6595 43.8019 18.5582C43.7006 18.4569 43.5632 18.4 43.42 18.4C43.2768 18.4 43.1395 18.4569 43.0382 18.5582C42.9369 18.6595 42.88 18.7968 42.88 18.94V19.84H33.16V18.94C33.16 18.7968 33.1031 18.6595 33.0019 18.5582C32.9006 18.4569 32.7632 18.4 32.62 18.4H29.74C29.5968 18.4 29.4595 18.4569 29.3582 18.5582C29.2569 18.6595 29.2 18.7968 29.2 18.94V19.84H19.48V18.94C19.48 18.7968 19.4231 18.6595 19.3219 18.5582C19.2206 18.4569 19.0832 18.4 18.94 18.4C18.7968 18.4 18.6595 18.4569 18.5582 18.5582C18.4569 18.6595 18.4 18.7968 18.4 18.94V21.82C18.4 21.9632 18.4569 22.1006 18.5582 22.2019C18.6595 22.3031 18.7968 22.36 18.94 22.36C19.0832 22.36 19.2206 22.3031 19.3219 22.2019C19.4231 22.1006 19.48 21.9632 19.48 21.82V20.92H25.3624C22.8878 21.9749 20.7748 23.729 19.2823 25.967C17.7898 28.2051 16.9827 30.83 16.96 33.52H16.06C15.9168 33.52 15.7795 33.5769 15.6782 33.6782C15.5769 33.7795 15.52 33.9168 15.52 34.06V36.94C15.52 37.0832 15.5769 37.2206 15.6782 37.3219C15.7795 37.4231 15.9168 37.48 16.06 37.48H18.94C19.0832 37.48 19.2206 37.4231 19.3219 37.3219C19.4231 37.2206 19.48 37.0832 19.48 36.94V34.06C19.48 33.9168 19.4231 33.7795 19.3219 33.6782C19.2206 33.5769 19.0832 33.52 18.94 33.52H18.04C18.0761 30.4346 19.225 27.466 21.2754 25.1603C23.3259 22.8545 26.14 21.3666 29.2 20.9704V21.82C29.2 21.9632 29.2569 22.1006 29.3582 22.2019C29.4595 22.3031 29.5968 22.36 29.74 22.36H30.6688L25.0636 36.5836C25.0163 36.7077 25.0163 36.8448 25.0636 36.9688L27.0724 42.4372L27.04 45.9364C27.0395 46.0076 27.0532 46.0782 27.0801 46.1442C27.107 46.2101 27.1467 46.2701 27.1969 46.3206C27.2471 46.3711 27.3068 46.4112 27.3725 46.4386C27.4383 46.4659 27.5088 46.48 27.58 46.48H34.42C34.5632 46.48 34.7006 46.4231 34.8019 46.3219C34.9031 46.2206 34.96 46.0832 34.96 45.94V42.4552L37.4116 37.0012C37.4398 36.9346 37.4544 36.863 37.4544 36.7906C37.4544 36.7183 37.4398 36.6467 37.4116 36.58L31.6912 22.36H32.62C32.7632 22.36 32.9006 22.3031 33.0019 22.2019C33.1031 22.1006 33.16 21.9632 33.16 21.82V20.9704C39.28 21.8092 43.7404 26.8384 43.96 33.16H43.06C42.9168 33.16 42.7795 33.2169 42.6782 33.3182C42.5769 33.4195 42.52 33.5568 42.52 33.7V36.58C42.52 36.7232 42.5769 36.8606 42.6782 36.9619C42.7795 37.0631 42.9168 37.12 43.06 37.12H45.94C46.0832 37.12 46.2206 37.0631 46.3219 36.9619C46.4231 36.8606 46.48 36.7232 46.48 36.58V33.7C46.48 33.5568 46.4231 33.4195 46.3219 33.3182C46.2206 33.2169 46.0832 33.16 45.94 33.16ZM18.4 36.4H16.6V34.6H18.4V36.4ZM28.12 45.4L28.1416 42.88H33.88V45.4H28.12ZM34.0708 41.8H27.9868L26.1436 36.7888L30.64 25.3804V35.14C30.64 35.2832 30.6969 35.4206 30.7982 35.5219C30.8995 35.6231 31.0368 35.68 31.18 35.68C31.3232 35.68 31.4606 35.6231 31.5619 35.5219C31.6631 35.4206 31.72 35.2832 31.72 35.14V25.3264L36.3316 36.76L34.0708 41.8ZM32.08 21.28H30.28V19.48H32.08V21.28ZM45.4 36.04H43.6V34.24H45.4V36.04Z" fill="white"/>
</g>
<defs>
<filter id="filter0_b_182_44" x="-19.998" y="-19.5" width="101" height="101" filterUnits="userSpaceOnUse" color-interpolation-filters="sRGB">
<feFlood flood-opacity="0" result="BackgroundImageFix"/>
<feGaussianBlur in="BackgroundImageFix" stdDeviation="10"/>
<feComposite in2="SourceAlpha" operator="in" result="effect1_backgroundBlur_182_44"/>
<feBlend mode="normal" in="SourceGraphic" in2="effect1_backgroundBlur_182_44" result="shape"/>
</filter>
<linearGradient id="paint0_linear_182_44" x1="1" y1="1" x2="61" y2="61" gradientUnits="userSpaceOnUse">
<stop offset="0.138693" stop-color="white"/>
<stop offset="0.414413" stop-color="white" stop-opacity="0"/>
</linearGradient>
</defs>
</svg>
