<svg width="24" height="24" viewBox="0 0 24 24" fill="none" xmlns="http://www.w3.org/2000/svg">
<path d="M18.1542 4.11836C16.3772 2.33711 14.0107 1.35742 11.4958 1.35742C6.30469 1.35742 2.08058 5.58153 2.08058 10.7726C2.08058 12.4309 2.51317 14.0509 3.33594 15.4802L2 20.3574L6.99174 19.0469C8.36585 19.7976 9.91384 20.192 11.4915 20.192H11.4958C16.6826 20.192 21 15.9679 21 10.7768C21 8.26189 19.9312 5.89961 18.1542 4.11836ZM11.4958 18.6059C10.0877 18.6059 8.70937 18.2284 7.50915 17.5159L7.225 17.3463L4.26473 18.1224L5.05357 15.2342L4.86696 14.9373C4.08237 13.6905 3.67098 12.2527 3.67098 10.7726C3.67098 6.45943 7.18259 2.94782 11.5 2.94782C13.5908 2.94782 15.5545 3.76211 17.0304 5.24224C18.5062 6.72238 19.4138 8.68599 19.4096 10.7768C19.4096 15.0943 15.8089 18.6059 11.4958 18.6059ZM15.7877 12.7447C15.5545 12.6259 14.3967 12.0576 14.1804 11.9813C13.9641 11.9007 13.8071 11.8626 13.6502 12.1001C13.4933 12.3376 13.0437 12.8634 12.9038 13.0246C12.7681 13.1815 12.6281 13.2027 12.3949 13.084C11.0123 12.3927 10.1047 11.8498 9.19286 10.2849C8.95112 9.86925 9.4346 9.89894 9.88415 8.99983C9.96049 8.84291 9.92232 8.7072 9.86295 8.58845C9.80357 8.4697 9.33281 7.31189 9.13772 6.84113C8.94688 6.38309 8.75179 6.44671 8.60759 6.43823C8.47187 6.42974 8.31495 6.42974 8.15804 6.42974C8.00112 6.42974 7.74665 6.48912 7.53036 6.72238C7.31406 6.95988 6.70759 7.52818 6.70759 8.68599C6.70759 9.84381 7.55156 10.9634 7.66607 11.1204C7.78482 11.2773 9.32433 13.6523 11.6866 14.6744C13.1795 15.319 13.7647 15.3742 14.5112 15.2639C14.965 15.196 15.9022 14.6956 16.0973 14.1443C16.2924 13.5929 16.2924 13.1222 16.233 13.0246C16.1779 12.9186 16.021 12.8592 15.7877 12.7447Z" fill="white"/>
</svg>
