<svg width="152" height="151" viewBox="0 0 152 151" fill="none" xmlns="http://www.w3.org/2000/svg">
<path d="M69.3488 142.166C69.0344 144.075 67.3001 145.081 65.0093 144.703C62.9571 144.365 61.7935 142.997 61.9329 141.059L63.0942 141.251C63.0093 142.56 63.7637 143.436 65.1955 143.672C66.8023 143.937 67.9885 143.282 68.2007 141.994C68.3658 140.991 67.882 140.258 66.7386 139.759L64.8604 138.96C63.1494 138.237 62.3944 137.067 62.6485 135.524C62.9734 133.551 64.7076 132.546 67.0621 132.933C69.2734 133.298 70.5776 134.705 70.4142 136.59L69.2369 136.396C69.3698 135.193 68.4482 134.24 66.8892 133.983C65.2188 133.708 64.0193 134.344 63.8044 135.649C63.6367 136.667 64.0994 137.429 65.2772 137.917L67.1236 138.712C68.8346 139.435 69.6055 140.607 69.3488 142.166Z" fill="white"/>
<path d="M54.8868 134.153C53.9162 136.403 51.8753 137.349 49.7878 136.449C48.1297 135.733 47.3308 134.248 47.6881 132.646L48.7096 133.086C48.5483 134.193 49.1706 135.111 50.1626 135.539C51.6134 136.165 53.1138 135.495 53.8737 133.734C54.6081 132.031 54.1523 130.482 52.7014 129.857C51.6355 129.397 50.5214 129.619 49.8442 130.415L48.8079 129.968C49.7806 128.649 51.4688 128.236 53.0973 128.939C55.1256 129.814 55.8574 131.903 54.8868 134.153Z" fill="white"/>
<path d="M35.7563 128.178L36.3351 127.363L36.8346 127.717C38.0045 128.548 39.3139 128.292 40.1728 127.082L42.7496 123.454L43.6566 124.099L39.138 130.461L38.2836 129.854L38.918 128.821C38.1828 129.328 37.195 129.298 36.3011 128.663C36.1039 128.523 35.9424 128.389 35.7563 128.178Z" fill="white"/>
<path d="M32.6811 120.446C30.9101 122.046 28.506 121.957 26.9716 120.258C25.4371 118.559 25.5937 116.158 27.3647 114.559C29.1237 112.971 31.5278 113.059 33.0623 114.758C34.5967 116.457 34.4401 118.858 32.6811 120.446ZM31.9127 119.62C33.2769 118.388 33.4442 116.672 32.3204 115.428C31.2074 114.195 29.4732 114.176 28.1091 115.407C26.7689 116.618 26.6005 118.356 27.7134 119.588C28.8373 120.833 30.5726 120.83 31.9127 119.62Z" fill="white"/>
<path d="M25.4858 104.794L26.0507 105.753L15.9248 111.721L15.3599 110.762L25.4858 104.794Z" fill="white"/>
<path d="M21.629 96.8437L22.0428 97.8764L11.1325 102.248L10.7187 101.216L21.629 96.8437Z" fill="white"/>
<path d="M17.7581 76.8544C17.7829 79.1276 16.0564 80.4848 13.7187 80.5104C11.3649 80.5361 9.57682 79.2174 9.55143 76.8958C9.53733 75.606 10.0903 74.5681 11.2129 74.0076L5.77974 74.067L5.76758 72.9546L17.5205 72.826L17.5311 73.7934L15.9363 73.9237C17.1514 74.4586 17.7438 75.5485 17.7581 76.8544ZM16.7403 76.6721C16.7216 74.9631 15.4209 73.9777 13.6152 73.9974C11.8257 74.017 10.5307 75.0308 10.5494 76.7398C10.5679 78.4326 11.8846 79.4017 13.6741 79.3822C15.4798 79.3624 16.7588 78.3649 16.7403 76.6721Z" fill="white"/>
<path d="M14.3999 64.802C12.0829 64.2314 10.8088 62.1907 11.3563 59.9677C11.9037 57.7447 13.9798 56.529 16.2968 57.0997C18.5981 57.6664 19.8722 59.7071 19.3248 61.9301C18.7773 64.1532 16.7012 65.3688 14.3999 64.802ZM14.6541 63.7023C16.4388 64.1418 17.9532 63.3192 18.3541 61.6911C18.7513 60.0786 17.7959 58.6312 16.0112 58.1917C14.2579 57.7599 12.724 58.5942 12.3269 60.2067C11.9259 61.8349 12.9007 63.2705 14.6541 63.7023Z" fill="white"/>
<path d="M23.4204 49.684L15.3516 48.1202L15.9111 47.1215L20.767 48.0865C21.3038 48.1839 21.8389 48.3174 22.4663 48.4841C21.9808 48.0642 21.4176 47.453 21.232 47.2566L17.8813 43.6051L18.4409 42.6064L23.2967 43.5714C23.7334 43.6497 24.4187 43.8119 24.996 43.969C24.5122 43.5131 24.3591 43.3904 23.7617 42.7415L20.411 39.09L20.9785 38.0773L26.4938 44.1983L25.9658 45.1407L20.9018 44.1516C20.3008 44.0366 19.8158 43.9128 19.3606 43.7686C19.6712 44.072 20.016 44.413 20.4762 44.9111L23.9641 48.7134L23.4204 49.684Z" fill="white"/>
<path d="M32.5123 36.3043L31.7366 37.1018L26.1426 31.661L26.8171 30.9675L27.9004 31.7962C27.5435 30.7294 27.8584 29.5962 28.6453 28.7872C30.1404 27.25 31.6718 27.5024 33.0818 28.8738L36.5029 32.2013L35.7273 32.9987L32.4795 29.8399C31.1735 28.5697 30.1379 28.7095 29.2386 29.6341C28.1257 30.7783 28.3283 32.2349 29.5881 33.4602L32.5123 36.3043Z" fill="white"/>
<path d="M46.384 16.1258L47.4689 15.6294L46.8384 14.2513C46.1072 12.6532 46.7052 11.6349 47.7901 11.1386C48.0393 11.0245 48.3393 10.905 48.594 10.8417L48.9898 11.7067L48.3886 11.9817C47.4943 12.3909 47.4677 12.9527 47.85 13.7884L48.4805 15.1666L50.1519 14.4019L50.541 15.2523L48.8696 16.017L51.7271 22.2627L50.7155 22.7256L47.8579 16.4798L46.773 16.9762L46.384 16.1258Z" fill="white"/>
<path d="M58.1153 15.5434C57.5975 13.2141 58.8599 11.1662 61.0949 10.6693C63.3298 10.1725 65.341 11.4927 65.8588 13.822C66.3731 16.1356 65.1107 18.1835 62.8758 18.6804C60.6409 19.1772 58.6297 17.857 58.1153 15.5434ZM59.2135 15.2828C59.6124 17.077 61.022 18.0685 62.6588 17.7046C64.2799 17.3442 65.1525 15.8454 64.7536 14.0512C64.3617 12.2884 62.9329 11.2848 61.3118 11.6451C59.6749 12.009 58.8217 13.52 59.2135 15.2828Z" fill="white"/>
<path d="M78.1736 9.09976V10.0994H77.5609C76.1259 10.0994 75.2069 11.0668 75.2069 12.5501V17H74.0944V9.1965H75.1424L75.2231 10.4057C75.5294 9.56733 76.3517 9.01915 77.448 9.01915C77.6899 9.01915 77.8995 9.03527 78.1736 9.09976Z" fill="white"/>
<path d="M95.9273 20.4247L96.6216 12.2352L97.6742 12.6851L97.2327 17.6161C97.193 18.1603 97.1174 18.7065 97.0185 19.3481C97.3842 18.8206 97.9319 18.1955 98.1074 17.9899L101.381 14.269L102.433 14.7188L101.992 19.6499C101.961 20.0924 101.872 20.7911 101.778 21.3819C102.179 20.8522 102.285 20.6869 102.867 20.0237L106.14 16.3027L107.207 16.7589L101.709 22.8956L100.716 22.4711L101.16 17.3305C101.21 16.7207 101.281 16.2252 101.376 15.7573C101.107 16.0984 100.805 16.4777 100.359 16.9883L96.9503 20.8619L95.9273 20.4247Z" fill="white"/>
<path d="M111.338 23.9276C112.825 22.0619 115.212 21.7582 117.002 23.1855C118.792 24.6127 119.028 27.0069 117.54 28.8727C116.063 30.7259 113.676 31.0295 111.886 29.6023C110.096 28.175 109.86 25.7808 111.338 23.9276ZM112.23 24.6186C111.084 26.0558 111.198 27.7754 112.509 28.8207C113.808 29.8559 115.522 29.5937 116.668 28.1566C117.793 26.7446 117.677 25.0023 116.379 23.9671C115.068 22.9218 113.356 23.2067 112.23 24.6186Z" fill="white"/>
<path d="M128.947 35.4907L128.169 36.1184L127.785 35.6416C126.884 34.5249 125.554 34.4172 124.399 35.3488L120.936 38.1433L120.238 37.2775L126.31 32.377L126.969 33.1925L126.078 34.0147C126.923 33.7266 127.866 34.0222 128.554 34.8754C128.706 35.0636 128.825 35.2369 128.947 35.4907Z" fill="white"/>
<path d="M127.055 47.069L126.544 46.0808L136.986 40.684L137.497 41.6723L130.407 45.3367L135.764 46.9235L136.408 48.1696L132.267 46.9343L129.483 51.767L128.891 50.6211L131.217 46.6239L129.132 45.9956L127.055 47.069Z" fill="white"/>
<path d="M134.022 69.1151L133.896 68.026L140.719 67.2361L140.539 65.6825L141.468 65.575L141.648 67.1285L144.098 66.8448L144.224 67.9339L141.774 68.2176L141.954 69.7712L141.025 69.8787L140.845 68.3252L134.022 69.1151Z" fill="white"/>
<path d="M138.4 76.9124C140.776 77.1389 142.334 78.9719 142.117 81.2511C141.899 83.5302 140.023 85.0356 137.647 84.8091C135.288 84.5841 133.73 82.7512 133.947 80.472C134.164 78.1929 136.041 76.6874 138.4 76.9124ZM138.309 78.0375C136.48 77.863 135.101 78.8977 134.942 80.5669C134.785 82.2201 135.941 83.5127 137.77 83.6871C139.568 83.8586 140.964 82.8093 141.121 81.1562C141.281 79.4869 140.107 78.2089 138.309 78.0375Z" fill="white"/>
<path d="M136.253 92.551C138.254 93.2757 139.439 95.1627 138.66 97.3154C138.198 98.5888 137.256 99.3448 136.009 99.425L137.441 100.064L137.112 100.973L130.002 98.3983C127.819 97.6077 126.899 95.6969 127.679 93.5443C128.36 91.6645 129.899 90.73 131.777 91.0843L131.398 92.1303C130.133 91.9295 129.106 92.5865 128.629 93.9054C128.085 95.4061 128.738 96.7745 130.269 97.329L132.013 97.9604C131.163 97.0868 130.925 95.8515 131.38 94.5933C132.138 92.5013 134.251 91.8263 136.253 92.551ZM135.889 93.6025C134.388 93.059 132.825 93.539 132.265 95.0853C131.689 96.677 132.5 98.0341 134.077 98.6051C135.638 99.1706 137.12 98.6783 137.702 97.0714C138.273 95.4948 137.374 94.1406 135.889 93.6025Z" fill="white"/>
<path d="M124.335 107.777C125.611 105.876 127.83 105.522 129.865 106.888C131.886 108.246 132.433 110.439 131.192 112.286C130.014 114.039 127.97 114.394 126.136 113.163L125.681 112.857L129.142 107.704C127.518 106.71 126.05 106.929 125.115 108.321C124.405 109.378 124.402 110.366 125.096 111.182L124.503 112.066C123.372 110.801 123.31 109.303 124.335 107.777ZM130.402 111.755C131.221 110.537 130.957 109.195 129.793 108.18L126.97 112.383C128.215 113.219 129.584 112.973 130.402 111.755Z" fill="white"/>
<path d="M116.616 117.333L117.397 116.564L122.215 121.459L123.33 120.362L123.985 121.028L122.871 122.125L124.601 123.884L123.82 124.653L122.089 122.894L120.975 123.991L120.319 123.325L121.433 122.228L116.616 117.333Z" fill="white"/>
<path d="M109.648 123.183L110.581 122.578L116.969 132.425L116.036 133.03L113.149 128.58C113.239 129.637 112.783 130.682 111.687 131.393C109.969 132.507 108.505 131.939 107.435 130.288L104.837 126.285L105.771 125.679L108.236 129.48C109.228 131.009 110.296 131.085 111.31 130.426C112.717 129.514 112.772 127.999 111.956 126.741L109.648 123.183Z" fill="white"/>
<path d="M95.4586 130.25C97.6171 129.487 99.6094 130.526 100.426 132.837C101.238 135.132 100.368 137.218 98.2707 137.96C96.2794 138.664 94.4267 137.729 93.6902 135.647L93.5075 135.13L99.3597 133.06C98.6494 131.293 97.3414 130.593 95.7606 131.152C94.5597 131.577 93.9673 132.368 94.0377 133.437L93.0344 133.792C92.8814 132.102 93.7258 130.863 95.4586 130.25ZM97.9536 137.063C99.3368 136.574 99.9263 135.34 99.5981 133.831L94.8251 135.519C95.325 136.933 96.5703 137.552 97.9536 137.063Z" fill="white"/>
<path d="M82.3259 141.438L82.1968 140.447L82.8043 140.368C84.2272 140.183 85.0135 139.105 84.8219 137.634L84.2469 133.221L85.35 133.077L86.3583 140.815L85.3191 140.951L85.0829 139.762C84.8875 140.633 84.143 141.283 83.0558 141.425C82.816 141.456 82.606 141.467 82.3259 141.438Z" fill="white"/>
</svg>
