<svg width="163" height="52" viewBox="0 0 163 52" fill="none" xmlns="http://www.w3.org/2000/svg">
<rect x="1" y="1" width="161" height="50" rx="25" stroke="url(#paint0_linear_109_320)" stroke-width="1.5"/>
<path d="M31.304 21.712C28.808 21.712 27.304 23.552 27.304 26.288C27.304 29.088 28.936 30.704 31.32 30.704C33.288 30.704 34.872 29.696 34.872 27.36V27.024H31V25.632H36.344V32.016H35.032L34.92 30.448C34.296 31.456 32.888 32.192 31.192 32.192C27.912 32.192 25.656 29.824 25.656 26.256C25.656 22.736 27.928 20.24 31.336 20.24C33.864 20.24 35.832 21.696 36.216 23.92H34.552C34.12 22.448 32.84 21.712 31.304 21.712ZM41.6984 32.192C39.3944 32.192 37.8104 30.528 37.8104 28.096C37.8104 25.648 39.3624 23.952 41.6344 23.952C43.8584 23.952 45.3144 25.488 45.3144 27.808V28.368L39.2664 28.384C39.3784 30.032 40.2424 30.944 41.7304 30.944C42.8984 30.944 43.6664 30.464 43.9224 29.568H45.3304C44.9464 31.248 43.6344 32.192 41.6984 32.192ZM41.6344 25.216C40.3224 25.216 39.4904 26 39.2984 27.376H43.8104C43.8104 26.08 42.9624 25.216 41.6344 25.216ZM49.1241 32H47.6201V25.44H46.0841V24.176H47.6201V21.728H49.1241V24.176H50.6601V25.44H49.1241V32ZM55.9689 23.552C55.9689 21.568 57.5689 20.224 59.9529 20.224C62.1609 20.224 63.5849 21.456 63.7129 23.456H62.1289C62.0489 22.304 61.2329 21.632 59.9369 21.632C58.4809 21.632 57.5369 22.368 57.5369 23.504C57.5369 24.432 58.0649 24.992 59.1529 25.248L61.0569 25.696C62.9449 26.128 63.9049 27.152 63.9049 28.784C63.9049 30.864 62.2889 32.192 59.8249 32.192C57.4729 32.192 55.9049 30.96 55.8089 28.976H57.4089C57.4409 30.08 58.3689 30.784 59.8249 30.784C61.3609 30.784 62.3369 30.064 62.3369 28.912C62.3369 28 61.8409 27.424 60.7369 27.168L58.8329 26.736C56.9449 26.304 55.9689 25.216 55.9689 23.552ZM67.8273 32H66.3233V25.44H64.7873V24.176H66.3233V21.728H67.8273V24.176H69.3633V25.44H67.8273V32ZM72.9073 32.192C71.2273 32.192 70.2353 31.248 70.2353 29.824C70.2353 28.384 71.3073 27.488 73.1473 27.344L75.6113 27.152V26.928C75.6113 25.616 74.8273 25.152 73.7713 25.152C72.5073 25.152 71.7873 25.712 71.7873 26.656H70.4753C70.4753 25.024 71.8193 23.952 73.8353 23.952C75.7713 23.952 77.0833 24.976 77.0833 27.088V32H75.8033L75.6433 30.736C75.2433 31.632 74.1713 32.192 72.9073 32.192ZM73.3393 31.024C74.7633 31.024 75.6273 30.096 75.6273 28.624V28.208L73.6273 28.368C72.2993 28.496 71.7553 29.008 71.7553 29.776C71.7553 30.608 72.3633 31.024 73.3393 31.024ZM83.6461 24.112V25.488H82.9741C81.5501 25.488 80.6701 26.352 80.6701 27.856V32H79.1661V24.192H80.5741L80.6701 25.376C80.9901 24.56 81.7741 24.016 82.8461 24.016C83.1181 24.016 83.3421 24.048 83.6461 24.112ZM87.5773 32H86.0733V25.44H84.5373V24.176H86.0733V21.728H87.5773V24.176H89.1133V25.44H87.5773V32ZM93.7609 32.192C91.4569 32.192 89.8729 30.528 89.8729 28.096C89.8729 25.648 91.4249 23.952 93.6969 23.952C95.9209 23.952 97.3769 25.488 97.3769 27.808V28.368L91.3289 28.384C91.4409 30.032 92.3049 30.944 93.7929 30.944C94.9609 30.944 95.7289 30.464 95.9849 29.568H97.3929C97.0089 31.248 95.6969 32.192 93.7609 32.192ZM93.6969 25.216C92.3849 25.216 91.5529 26 91.3609 27.376H95.8729C95.8729 26.08 95.0249 25.216 93.6969 25.216ZM102.193 32.192C99.9208 32.192 98.5448 30.496 98.5448 28.112C98.5448 25.712 99.9368 23.952 102.257 23.952C103.457 23.952 104.465 24.48 104.993 25.44V20.224H106.481V32H105.137L105.009 30.576C104.497 31.648 103.441 32.192 102.193 32.192ZM102.497 30.832C104.033 30.832 104.977 29.696 104.977 28.064C104.977 26.464 104.033 25.312 102.497 25.312C100.961 25.312 100.065 26.464 100.065 28.064C100.065 29.68 100.961 30.832 102.497 30.832Z" fill="white"/>
<rect x="118" y="16" width="20" height="20" rx="10" stroke="white"/>
<path d="M132.021 28.7727L131.798 23.1081C131.792 23.0026 131.764 22.8978 131.718 22.7996C131.629 22.6018 131.468 22.441 131.27 22.3521C131.172 22.3057 131.067 22.2785 130.962 22.2721L125.297 22.0489C125.192 22.0448 125.088 22.0614 124.992 22.098C124.896 22.1346 124.81 22.1904 124.738 22.2621C124.593 22.407 124.516 22.6083 124.525 22.8216C124.533 23.0349 124.626 23.2429 124.783 23.3997C124.939 23.5564 125.147 23.6492 125.361 23.6577L129.093 23.7991L124.419 28.4732C124.275 28.6175 124.199 28.8179 124.207 29.0304C124.215 29.2429 124.308 29.4499 124.464 29.6061C124.62 29.7623 124.827 29.8547 125.04 29.863C125.252 29.8714 125.453 29.795 125.597 29.6507L130.271 24.9766L130.412 28.7093C130.416 28.815 130.441 28.9206 130.485 29.02C130.529 29.1194 130.592 29.2106 130.669 29.2883C130.747 29.366 130.838 29.4287 130.938 29.4729C131.037 29.517 131.143 29.5416 131.248 29.5454C131.354 29.55 131.458 29.5336 131.554 29.4972C131.651 29.4607 131.737 29.405 131.809 29.3332C131.881 29.2613 131.937 29.1748 131.973 29.0786C132.009 28.9824 132.026 28.8785 132.021 28.7727Z" fill="white"/>
<defs>
<linearGradient id="paint0_linear_109_320" x1="1" y1="1" x2="152.187" y2="71.9198" gradientUnits="userSpaceOnUse">
<stop stop-color="#504CFF"/>
<stop offset="1" stop-color="#480091"/>
</linearGradient>
</defs>
</svg>
